<svg width="31" height="31" viewBox="0 0 31 31" fill="none" xmlns="http://www.w3.org/2000/svg">
<path d="M28.1654 12.9701H27.125V12.9165H15.5V18.0832H22.7998C21.7349 21.0908 18.8732 23.2499 15.5 23.2499C11.2201 23.2499 7.74999 19.7798 7.74999 15.4999C7.74999 11.2199 11.2201 7.74987 15.5 7.74987C17.4756 7.74987 19.273 8.49516 20.6415 9.71256L24.295 6.05908C21.988 3.9091 18.9022 2.5832 15.5 2.5832C8.36676 2.5832 2.58333 8.36664 2.58333 15.4999C2.58333 22.6331 8.36676 28.4165 15.5 28.4165C22.6332 28.4165 28.4167 22.6331 28.4167 15.4999C28.4167 14.6338 28.3275 13.7884 28.1654 12.9701Z" fill="#FFC107"/>
<path d="M4.07264 9.48781L8.31641 12.6001C9.4647 9.75712 12.2457 7.74987 15.5 7.74987C17.4756 7.74987 19.273 8.49516 20.6415 9.71256L24.295 6.05908C21.9881 3.9091 18.9023 2.5832 15.5 2.5832C10.5387 2.5832 6.23618 5.38418 4.07264 9.48781Z" fill="#FF3D00"/>
<path d="M15.5 28.4163C18.8364 28.4163 21.8679 27.1395 24.16 25.0632L20.1623 21.6803C18.8221 22.7001 17.1841 23.2515 15.5 23.2497C12.1404 23.2497 9.28772 21.1074 8.21305 18.1179L4.00093 21.3632C6.13864 25.5462 10.4799 28.4163 15.5 28.4163Z" fill="#4CAF50"/>
<path d="M28.1654 12.9701H27.125V12.9165H15.5V18.0832H22.7998C22.2904 19.5146 21.3728 20.7654 20.1603 21.6811L20.1623 21.6798L24.16 25.0627C23.8771 25.3197 28.4167 21.9582 28.4167 15.4998C28.4167 14.6338 28.3275 13.7884 28.1654 12.9701Z" fill="#1976D2"/>
</svg>
