<svg width="172" height="31" viewBox="0 0 172 31" fill="none" xmlns="http://www.w3.org/2000/svg">
<path d="M14.63 0.93815C14.874 0.519363 15.479 0.519365 15.7229 0.938151L19.9425 8.18277C20.0319 8.33618 20.1816 8.44496 20.3551 8.48253L28.5491 10.2569C29.0227 10.3595 29.2097 10.9349 28.8868 11.2963L23.3007 17.5481C23.1824 17.6804 23.1252 17.8565 23.1431 18.0331L23.9876 26.3743C24.0364 26.8565 23.547 27.2121 23.1035 27.0167L15.4315 23.6359C15.269 23.5643 15.0839 23.5643 14.9215 23.6359L7.24946 27.0167C6.80597 27.2121 6.31651 26.8565 6.36533 26.3743L7.20988 18.0331C7.22776 17.8565 7.17057 17.6804 7.05228 17.5481L1.46617 11.2963C1.14325 10.9349 1.33021 10.3595 1.80388 10.2569L9.99785 8.48253C10.1714 8.44496 10.3211 8.33618 10.4104 8.18277L14.63 0.93815Z" fill="#FFC107"/>
<path d="M50.0418 0.93815C50.2857 0.519363 50.8907 0.519365 51.1346 0.938151L55.3543 8.18277C55.4436 8.33618 55.5933 8.44496 55.7668 8.48253L63.9608 10.2569C64.4345 10.3595 64.6214 10.9349 64.2985 11.2963L58.7124 17.5481C58.5941 17.6804 58.5369 17.8565 58.5548 18.0331L59.3994 26.3743C59.4482 26.8565 58.9587 27.2121 58.5152 27.0167L50.8432 23.6359C50.6808 23.5643 50.4957 23.5643 50.3332 23.6359L42.6612 27.0167C42.2177 27.2121 41.7283 26.8565 41.7771 26.3743L42.6216 18.0331C42.6395 17.8565 42.5823 17.6804 42.464 17.5481L36.8779 11.2963C36.555 10.9349 36.742 10.3595 37.2156 10.2569L45.4096 8.48253C45.5831 8.44496 45.7328 8.33618 45.8222 8.18277L50.0418 0.93815Z" fill="#FFC107"/>
<path d="M85.4536 0.93815C85.6975 0.519363 86.3025 0.519365 86.5464 0.938151L90.766 8.18277C90.8554 8.33618 91.0051 8.44496 91.1786 8.48253L99.3726 10.2569C99.8462 10.3595 100.033 10.9349 99.7103 11.2963L94.1242 17.5481C94.0059 17.6804 93.9487 17.8565 93.9666 18.0331L94.8111 26.3743C94.8599 26.8565 94.3705 27.2121 93.927 27.0167L86.255 23.6359C86.0925 23.5643 85.9074 23.5643 85.745 23.6359L78.073 27.0167C77.6295 27.2121 77.14 26.8565 77.1888 26.3743L78.0334 18.0331C78.0513 17.8565 77.9941 17.6804 77.8758 17.5481L72.2897 11.2963C71.9668 10.9349 72.1537 10.3595 72.6274 10.2569L80.8214 8.48253C80.9949 8.44496 81.1446 8.33618 81.234 8.18277L85.4536 0.93815Z" fill="#FFC107"/>
<path d="M120.865 0.93815C121.109 0.519363 121.714 0.519365 121.958 0.938151L126.178 8.18277C126.267 8.33618 126.417 8.44496 126.59 8.48253L134.784 10.2569C135.258 10.3595 135.445 10.9349 135.122 11.2963L129.536 17.5481C129.418 17.6804 129.36 17.8565 129.378 18.0331L130.223 26.3743C130.272 26.8565 129.782 27.2121 129.339 27.0167L121.667 23.6359C121.504 23.5643 121.319 23.5643 121.157 23.6359L113.485 27.0167C113.041 27.2121 112.552 26.8565 112.601 26.3743L113.445 18.0331C113.463 17.8565 113.406 17.6804 113.288 17.5481L107.701 11.2963C107.379 10.9349 107.565 10.3595 108.039 10.2569L116.233 8.48253C116.407 8.44496 116.556 8.33618 116.646 8.18277L120.865 0.93815Z" fill="#FFC107"/>
<path d="M156.277 0.93815C156.521 0.519363 157.126 0.519365 157.37 0.938151L161.59 8.18277C161.679 8.33618 161.829 8.44496 162.002 8.48253L170.196 10.2569C170.67 10.3595 170.857 10.9349 170.534 11.2963L164.948 17.5481C164.829 17.6804 164.772 17.8565 164.79 18.0331L165.635 26.3743C165.683 26.8565 165.194 27.2121 164.751 27.0167L157.079 23.6359C156.916 23.5643 156.731 23.5643 156.569 23.6359L148.897 27.0167C148.453 27.2121 147.964 26.8565 148.012 26.3743L148.857 18.0331C148.875 17.8565 148.818 17.6804 148.699 17.5481L143.113 11.2963C142.79 10.9349 142.977 10.3595 143.451 10.2569L151.645 8.48253C151.818 8.44496 151.968 8.33618 152.057 8.18277L156.277 0.93815Z" fill="#FFC107"/>
</svg>
