<svg width="31" height="31" viewBox="0 0 31 31" fill="none" xmlns="http://www.w3.org/2000/svg">
<path d="M15.5 2.80121C19.6084 2.80121 20.1687 2.80121 21.8494 2.80121C23.3434 2.80121 24.0904 3.1747 24.6506 3.36145C25.3976 3.73494 25.9578 3.92169 26.5181 4.48193C27.0783 5.04217 27.4518 5.60241 27.6386 6.3494C27.8253 6.90964 28.012 7.65663 28.1988 9.1506C28.1988 10.8313 28.1988 11.2048 28.1988 15.5C28.1988 19.7952 28.1988 20.1687 28.1988 21.8494C28.1988 23.3434 27.8253 24.0904 27.6386 24.6506C27.2651 25.3976 27.0783 25.9578 26.5181 26.5181C25.9578 27.0783 25.3976 27.4518 24.6506 27.6386C24.0904 27.8253 23.3434 28.012 21.8494 28.1988C20.1687 28.1988 19.7952 28.1988 15.5 28.1988C11.2048 28.1988 10.8313 28.1988 9.1506 28.1988C7.65663 28.1988 6.90964 27.8253 6.3494 27.6386C5.60241 27.2651 5.04217 27.0783 4.48193 26.5181C3.92169 25.9578 3.54819 25.3976 3.36145 24.6506C3.1747 24.0904 2.98795 23.3434 2.80121 21.8494C2.80121 20.1687 2.80121 19.7952 2.80121 15.5C2.80121 11.2048 2.80121 10.8313 2.80121 9.1506C2.80121 7.65663 3.1747 6.90964 3.36145 6.3494C3.73494 5.60241 3.92169 5.04217 4.48193 4.48193C5.04217 3.92169 5.60241 3.54819 6.3494 3.36145C6.90964 3.1747 7.65663 2.98795 9.1506 2.80121C10.8313 2.80121 11.3916 2.80121 15.5 2.80121ZM15.5 0C11.2048 0 10.8313 0 9.1506 0C7.46988 0 6.3494 0.373495 5.41566 0.746989C4.48193 1.12048 3.54819 1.68072 2.61446 2.61446C1.68072 3.54819 1.30723 4.29518 0.746989 5.41566C0.373495 6.3494 0.186747 7.46988 0 9.1506C0 10.8313 0 11.3916 0 15.5C0 19.7952 0 20.1687 0 21.8494C0 23.5301 0.373495 24.6506 0.746989 25.5843C1.12048 26.5181 1.68072 27.4518 2.61446 28.3855C3.54819 29.3193 4.29518 29.6928 5.41566 30.253C6.3494 30.6265 7.46988 30.8133 9.1506 31C10.8313 31 11.3916 31 15.5 31C19.6084 31 20.1687 31 21.8494 31C23.5301 31 24.6506 30.6265 25.5843 30.253C26.5181 29.8795 27.4518 29.3193 28.3855 28.3855C29.3193 27.4518 29.6928 26.7048 30.253 25.5843C30.6265 24.6506 30.8133 23.5301 31 21.8494C31 20.1687 31 19.6084 31 15.5C31 11.3916 31 10.8313 31 9.1506C31 7.46988 30.6265 6.3494 30.253 5.41566C29.8795 4.48193 29.3193 3.54819 28.3855 2.61446C27.4518 1.68072 26.7048 1.30723 25.5843 0.746989C24.6506 0.373495 23.5301 0.186747 21.8494 0C20.1687 0 19.7952 0 15.5 0Z" fill="white"/>
<path d="M15.5 7.46988C11.0181 7.46988 7.46988 11.0181 7.46988 15.5C7.46988 19.9819 11.0181 23.5301 15.5 23.5301C19.9819 23.5301 23.5301 19.9819 23.5301 15.5C23.5301 11.0181 19.9819 7.46988 15.5 7.46988ZM15.5 20.7289C12.6988 20.7289 10.2711 18.488 10.2711 15.5C10.2711 12.6988 12.5121 10.2711 15.5 10.2711C18.3012 10.2711 20.7289 12.5121 20.7289 15.5C20.7289 18.3012 18.3012 20.7289 15.5 20.7289Z" fill="white"/>
<path d="M23.7169 9.1506C24.7482 9.1506 25.5843 8.31451 25.5843 7.28313C25.5843 6.25176 24.7482 5.41566 23.7169 5.41566C22.6855 5.41566 21.8494 6.25176 21.8494 7.28313C21.8494 8.31451 22.6855 9.1506 23.7169 9.1506Z" fill="white"/>
</svg>
